HIERARCHY
ROOT Hips
{
	OFFSET -0.001795 -0.223333 0.028219
	CHANNELS 6 Xposition Yposition Zposition Zrotation Yrotation Xrotation 
	JOINT LeftUpLeg
	{
		OFFSET 0.069520 -0.091406 -0.006815
		CHANNELS 3 Zrotation Yrotation Xrotation
		JOINT LeftLeg
		{
			OFFSET 0.034277 -0.375199 -0.004496
			CHANNELS 3 Zrotation Yrotation Xrotation
			JOINT LeftFoot
			{
				OFFSET -0.013596 -0.397961 -0.043693
				CHANNELS 3 Zrotation Yrotation Xrotation
				JOINT LeftToe
				{
					OFFSET 0.026358 -0.055791 0.119288
					CHANNELS 3 Zrotation Yrotation Xrotation
					End Site
					{
						OFFSET 0.000000 0.000000 0.000000
					}
				}
			}
		}
	}
	JOINT RightUpLeg
	{
		OFFSET -0.067670 -0.090522 -0.004320
		CHANNELS 3 Zrotation Yrotation Xrotation
		JOINT RightLeg
		{
			OFFSET -0.038290 -0.382569 -0.008850
			CHANNELS 3 Zrotation Yrotation Xrotation
			JOINT RightFoot
			{
				OFFSET 0.015774 -0.398415 -0.042312
				CHANNELS 3 Zrotation Yrotation Xrotation
				JOINT RightToe
				{
					OFFSET -0.025372 -0.048144 0.123348
					CHANNELS 3 Zrotation Yrotation Xrotation
					End Site
					{
						OFFSET 0.000000 0.000000 0.000000
					}
				}
			}
		}
	}
	JOINT Spine
	{
		OFFSET -0.002533 0.108963 -0.026696
		CHANNELS 3 Zrotation Yrotation Xrotation
		JOINT Spine1
		{
			OFFSET 0.005487 0.135180 0.001092
			CHANNELS 3 Zrotation Yrotation Xrotation
			JOINT Spine2
			{
				OFFSET 0.001457 0.052922 0.025425
				CHANNELS 3 Zrotation Yrotation Xrotation
				JOINT Neck
				{
					OFFSET -0.002778 0.213870 -0.042857
					CHANNELS 3 Zrotation Yrotation Xrotation
					JOINT Head
					{
						OFFSET 0.005152 0.064970 0.051349
						CHANNELS 3 Zrotation Yrotation Xrotation
						End Site
						{
							OFFSET 0.000000 0.000000 0.000000
						}
					}
				}
				JOINT LeftShoulder
				{
					OFFSET 0.078845 0.121749 -0.034090
					CHANNELS 3 Zrotation Yrotation Xrotation
					JOINT LeftArm
					{
						OFFSET 0.090977 0.030469 -0.008868
						CHANNELS 3 Zrotation Yrotation Xrotation
						JOINT LeftForeArm
						{
							OFFSET 0.259612 -0.012772 -0.027456
							CHANNELS 3 Zrotation Yrotation Xrotation
							JOINT LeftHand
							{
								OFFSET 0.249234 0.008986 -0.001171
								CHANNELS 3 Zrotation Yrotation Xrotation
								End Site
								{
									OFFSET 0.000000 0.000000 0.000000
								}
							}
						}
					}
				}
				JOINT RightShoulder
				{
					OFFSET -0.081759 0.118833 -0.038615
					CHANNELS 3 Zrotation Yrotation Xrotation
					JOINT RightArm
					{
						OFFSET -0.096012 0.032551 -0.009143
						CHANNELS 3 Zrotation Yrotation Xrotation
						JOINT RightForeArm
						{
							OFFSET -0.253742 -0.013329 -0.021401
							CHANNELS 3 Zrotation Yrotation Xrotation
							JOINT RightHand
							{
								OFFSET -0.255298 0.007772 -0.005559
								CHANNELS 3 Zrotation Yrotation Xrotation
								End Site
								{
									OFFSET 0.000000 0.000000 0.000000
								}
							}
						}
					}
				}
			}
		}
	}
}
MOTION
Frames: 15
Frame Time: 0.050000
0.024190 0.961447 0.022975 -0.889319 0.690312 2.650660 1.673786 0.192823 2.990771 -0.055758 0.209619 -6.125556 2.069311 8.088878 12.068038 0.000000 0.000000 0.000000 -1.776055 0.201452 -1.768628 -3.235042 0.403582 0.877194 3.477151 2.625871 10.481827 0.000000 0.000000 0.000000 5.930488 0.869863 -10.586508 -0.660884 0.347937 -1.477328 -5.141222 5.304671 14.103698 7.464078 -2.567532 -18.113087 0.000000 0.000000 0.000000 22.058427 -22.057001 5.313325 -1.102974 -36.392112 -2.648167 98.082523 4.852135 1.948734 0.000000 0.000000 0.000000 -15.853596 13.186341 2.751840 11.679754 34.926140 0.964028 -101.211410 8.987221 -3.446246 0.000000 0.000000 0.000000 
0.024343 0.961056 0.024171 -0.901659 1.370985 2.479523 1.675423 0.194432 3.059548 -0.015752 0.198710 -5.896915 1.755201 7.556482 11.689361 0.000000 0.000000 0.000000 -1.836211 0.193186 -1.690894 -2.895933 0.407348 1.484230 3.185131 2.211372 10.306373 0.000000 0.000000 0.000000 5.779441 0.843169 -10.514405 -0.351811 0.204008 -1.318857 -5.272316 5.213585 14.041273 7.241619 -2.479014 -17.586354 0.000000 0.000000 0.000000 21.173818 -21.773108 5.415576 -0.344916 -36.403043 -2.848146 98.518840 5.354017 2.334004 0.000000 0.000000 0.000000 -14.728057 12.788466 2.763180 12.575702 33.910049 1.060889 -102.447194 10.746825 -5.394764 0.000000 0.000000 0.000000 
0.024456 0.960993 0.025636 -0.869380 2.031161 2.448612 1.734718 0.186359 3.043493 -0.018638 0.191073 -5.690643 1.399813 7.008267 11.541666 0.000000 0.000000 0.000000 -1.983500 0.182049 -1.561076 -2.556121 0.372115 1.538871 2.939572 1.831322 10.242061 0.000000 0.000000 0.000000 5.485396 0.823823 -10.677511 0.072589 0.000994 -1.059963 -5.417971 5.148527 13.842838 7.050082 -2.415288 -16.998228 0.000000 0.000000 0.000000 20.414658 -21.354613 5.487604 0.426572 -36.285047 -3.036355 98.857438 6.039004 2.906650 0.000000 0.000000 0.000000 -13.240835 12.412524 2.825321 13.979712 32.064833 1.147000 -103.982471 12.755895 -7.754012 0.000000 0.000000 0.000000 
0.024553 0.960644 0.027364 -0.929971 2.818295 2.190483 2.091015 0.178205 3.243888 -0.199422 0.188781 -5.333172 1.112411 6.548938 11.287001 0.000000 0.000000 0.000000 -2.157298 0.147603 -1.169919 -2.130198 0.337086 1.795656 2.783788 1.553237 10.391749 0.000000 0.000000 0.000000 5.168963 0.782504 -10.582262 0.506634 -0.197997 -1.083822 -5.298797 5.038531 13.808041 6.860807 -2.422961 -16.044682 0.000000 0.000000 0.000000 19.309701 -20.735071 5.538821 1.028234 -36.462786 -3.220528 99.003169 6.227034 2.960722 0.000000 0.000000 0.000000 -11.612349 11.531152 2.769281 15.358158 30.161136 1.158142 -105.999717 15.503209 -11.284165 0.000000 0.000000 0.000000 
0.024715 0.960432 0.029176 -0.895268 3.426351 2.046715 2.153327 0.177230 3.335792 -0.232755 0.184200 -5.151522 0.798932 6.096535 11.272576 0.000000 0.000000 0.000000 -2.168624 0.106531 -0.709318 -1.954688 0.317406 1.811064 2.603666 1.253269 10.427079 0.000000 0.000000 0.000000 4.856519 0.755537 -10.643840 0.849037 -0.363523 -0.926517 -5.211236 4.813340 13.513053 6.748356 -2.480258 -15.214291 0.000000 0.000000 0.000000 18.263638 -19.922714 5.520449 1.764147 -36.506675 -3.392671 98.979364 6.562965 3.281868 0.000000 0.000000 0.000000 -10.033425 10.854484 2.770859 16.188406 28.113735 1.017498 -108.008952 17.873971 -14.767172 0.000000 0.000000 0.000000 
0.024990 0.960114 0.030691 -0.893890 3.896736 1.852116 2.392712 0.156343 3.258110 -0.448867 0.177261 -4.486842 0.706756 5.952640 11.140492 0.000000 0.000000 0.000000 -2.451791 0.071571 -0.271655 -1.571307 0.274707 1.909617 2.644646 1.361892 10.513538 0.000000 0.000000 0.000000 4.561377 0.735527 -10.743594 1.193855 -0.544030 -0.555127 -5.051210 4.530714 13.053590 6.193332 -2.292336 -14.160372 0.000000 0.000000 0.000000 17.368009 -19.082505 5.457002 2.263952 -36.882454 -3.540556 98.863465 6.729588 3.507386 0.000000 0.000000 0.000000 -8.717353 10.269447 2.764340 16.731883 26.989992 0.933466 -110.143323 20.202078 -18.566300 0.000000 0.000000 0.000000 
0.025470 0.959807 0.031588 -0.799979 4.050576 1.769903 2.398034 0.156188 3.271217 -0.461236 0.170053 -4.204411 0.426897 5.464510 11.006736 0.000000 0.000000 0.000000 -2.645800 0.049910 0.021273 -1.453801 0.251158 1.734514 2.563442 1.234424 10.470677 0.000000 0.000000 0.000000 4.505815 0.728738 -10.728446 1.370815 -0.627060 -0.567934 -5.037683 4.426657 12.917590 6.209933 -2.444715 -13.361590 0.000000 0.000000 0.000000 16.989895 -18.496876 5.384790 2.692187 -37.060216 -3.660311 98.361261 7.670614 4.499517 0.000000 0.000000 0.000000 -8.236985 10.051477 2.756098 16.948550 26.377822 0.873742 -111.799716 21.266304 -20.658259 0.000000 0.000000 0.000000 
0.026084 0.959609 0.031805 -0.752725 4.398442 1.632753 2.335566 0.163049 3.357556 -0.544023 0.166344 -3.889644 0.170880 5.126401 11.137790 0.000000 0.000000 0.000000 -2.876202 0.033703 0.240212 -1.343002 0.242093 1.828254 2.597838 1.325231 10.529531 0.000000 0.000000 0.000000 4.386011 0.719081 -10.781442 1.693813 -0.793497 -0.343961 -4.963837 4.059002 12.732209 6.089558 -2.595028 -12.158569 0.000000 0.000000 0.000000 16.227121 -17.919612 5.305784 2.736353 -37.176507 -3.654624 98.364228 8.225556 5.225401 0.000000 0.000000 0.000000 -8.236608 9.896487 2.726944 16.708661 26.720995 0.880854 -112.139720 21.258363 -20.935703 0.000000 0.000000 0.000000 
0.026798 0.959417 0.031518 -0.611365 4.634174 1.553565 2.135358 0.182945 3.512591 -0.463286 0.160793 -3.892357 -0.012088 4.893040 11.255036 0.000000 0.000000 0.000000 -3.176634 0.029475 0.338234 -1.324096 0.239844 1.826484 2.621975 1.420122 10.493793 0.000000 0.000000 0.000000 4.369537 0.718917 -10.841368 1.939583 -0.926536 -0.099725 -4.989590 4.031229 12.465824 5.953696 -2.683303 -11.058722 0.000000 0.000000 0.000000 15.673044 -17.543497 5.284349 2.056035 -37.459571 -3.528998 97.744139 9.212881 6.188931 0.000000 0.000000 0.000000 -8.750217 9.854050 2.661125 17.020220 27.386189 1.035693 -113.126792 21.209083 -21.142211 0.000000 0.000000 0.000000 
0.027550 0.959185 0.030760 -0.491984 5.150412 1.289333 2.186012 0.183163 3.604315 -0.483710 0.154351 -3.630165 -0.407634 4.334717 11.343357 0.000000 0.000000 0.000000 -3.325519 0.007359 0.584789 -1.377958 0.250846 1.893101 2.693290 1.564985 10.654079 0.000000 0.000000 0.000000 4.337064 0.700756 -10.685406 2.285540 -1.106360 0.083554 -4.933830 3.636458 12.319713 5.913707 -2.869928 -9.955590 0.000000 0.000000 0.000000 14.633337 -17.104642 5.229673 0.883819 -37.596388 -3.229923 97.343212 9.177165 6.219462 0.000000 0.000000 0.000000 -8.960662 9.924652 2.669707 16.919996 28.338608 1.142941 -113.662526 20.676078 -20.673185 0.000000 0.000000 0.000000 
0.028335 0.958955 0.029418 -0.375007 5.241960 1.193883 2.073577 0.199649 3.760445 -0.486986 0.156792 -3.714782 -0.535564 4.175081 11.450927 0.000000 0.000000 0.000000 -3.560420 0.009706 0.587349 -1.401298 0.258890 1.993301 2.719188 1.717123 10.442671 0.000000 0.000000 0.000000 4.404112 0.701464 -10.617609 2.453906 -1.194444 0.171231 -4.833689 3.587908 12.180555 6.040871 -3.009390 -9.698961 0.000000 0.000000 0.000000 14.171866 -16.968229 5.220048 -0.801246 -37.476857 -2.798352 96.558927 9.986681 6.997115 0.000000 0.000000 0.000000 -9.456214 10.103381 2.674135 17.111930 29.210180 1.310236 -113.832318 19.478029 -19.026307 0.000000 0.000000 0.000000 
0.029160 0.958782 0.027598 -0.276879 5.322393 1.195952 1.794624 0.200130 3.529396 -0.310779 0.131024 -3.228680 -0.892565 3.544277 11.309118 0.000000 0.000000 0.000000 -3.831017 0.045598 0.136518 -1.574217 0.317578 2.723338 2.676275 1.637938 10.445685 0.000000 0.000000 0.000000 4.588984 0.703139 -10.453265 2.707621 -1.336261 0.417032 -4.741747 3.528568 11.927836 6.435716 -3.561710 -8.338530 0.000000 0.000000 0.000000 13.137591 -17.179303 5.293701 -2.584881 -36.932065 -2.300960 96.600782 10.025316 7.107348 0.000000 0.000000 0.000000 -9.634775 10.362928 2.735916 16.948725 29.521495 1.337515 -114.378768 18.249026 -17.507279 0.000000 0.000000 0.000000 
0.029986 0.958531 0.025194 -0.016806 5.420144 0.954527 1.563982 0.216081 3.563833 -0.452396 0.125596 -2.683778 -0.896078 3.423287 10.989311 0.000000 0.000000 0.000000 -4.256551 0.059408 -0.049907 -1.703650 0.362542 3.263524 2.645355 1.801598 9.929027 0.000000 0.000000 0.000000 4.692447 0.698328 -10.235650 3.148441 -1.587217 0.842038 -4.851747 3.701732 11.798134 6.990625 -4.079111 -7.742522 0.000000 0.000000 0.000000 12.665634 -17.472074 5.389682 -5.083131 -36.725855 -1.721204 96.486596 10.714091 7.722459 0.000000 0.000000 0.000000 -9.693099 10.462102 2.741360 17.475867 29.958616 1.506041 -115.228932 16.726526 -15.378609 0.000000 0.000000 0.000000 
0.030815 0.958097 0.022279 0.007174 5.492993 0.739724 1.443583 0.218917 3.504442 -0.353080 0.110423 -2.422479 -0.857924 3.449353 10.871319 0.000000 0.000000 0.000000 -4.407868 0.088487 -0.526667 -1.920394 0.434157 4.059323 2.533013 1.576574 9.928437 0.000000 0.000000 0.000000 5.062554 0.688871 -9.684029 3.414203 -1.733528 1.007477 -4.547761 3.561876 11.675476 7.316416 -4.561342 -6.695107 0.000000 0.000000 0.000000 11.092835 -17.967960 5.532934 -7.546910 -35.805960 -1.093262 97.329558 10.127867 7.377140 0.000000 0.000000 0.000000 -9.411305 10.786497 2.872881 17.673886 30.309207 1.578094 -116.263848 15.703039 -14.313100 0.000000 0.000000 0.000000 
0.031558 0.958083 0.018802 0.219556 5.380900 0.643132 1.184493 0.234041 3.499362 -0.237982 0.097309 -2.282912 -0.889121 3.343611 10.766893 0.000000 0.000000 0.000000 -4.795790 0.106407 -0.793986 -2.164333 0.495953 4.537490 2.654745 2.030338 9.415916 0.000000 0.000000 0.000000 5.333711 0.671775 -9.154950 3.906375 -2.025988 1.536454 -4.457119 3.534200 11.287288 7.745764 -4.901627 -6.636618 0.000000 0.000000 0.000000 10.140615 -18.075666 5.590483 -10.535902 -35.180833 -0.416279 97.922911 9.826103 7.249853 0.000000 0.000000 0.000000 -9.076068 11.333847 3.078147 18.467272 30.761822 1.794127 -117.812594 15.087791 -13.930985 0.000000 0.000000 0.000000 
